<svg width="596" height="810" viewBox="0 0 596 810" fill="none" xmlns="http://www.w3.org/2000/svg">
<g clip-path="url(#clip0_30_11)">
<rect width="596" height="810" rx="20" fill="#545859"/>
<path d="M496 -4C496 -6.76142 498.239 -9 501 -9H564C566.761 -9 569 -6.76142 569 -4V139.254C569 143.327 564.392 145.691 561.084 143.316L535.416 124.885C533.673 123.634 531.327 123.634 529.584 124.885L503.916 143.316C500.608 145.691 496 143.327 496 139.254V-4Z" fill="#FF5C5C"/>
<path d="M460.672 623.896C460.672 624.899 460.277 625.72 459.488 626.36C458.72 626.979 457.675 627.288 456.352 627.288C455.264 627.288 454.091 626.936 452.832 626.232L453.632 624.632C454.507 625.229 455.445 625.528 456.448 625.528C457.941 625.528 458.688 625.016 458.688 623.992C458.688 623.203 457.963 622.584 456.512 622.136C454.379 621.475 453.312 620.461 453.312 619.096C453.312 618.179 453.664 617.411 454.368 616.792C455.093 616.152 456.064 615.832 457.28 615.832C458.517 615.832 459.563 616.141 460.416 616.76L459.68 618.232C458.933 617.677 458.091 617.4 457.152 617.4C456.597 617.4 456.128 617.549 455.744 617.848C455.381 618.125 455.2 618.488 455.2 618.936C455.2 619.491 455.979 620.035 457.536 620.568C459.627 621.293 460.672 622.403 460.672 623.896ZM471.773 626.328C470.749 626.968 469.501 627.288 468.029 627.288C466.301 627.288 464.914 626.755 463.869 625.688C462.823 624.6 462.301 623.203 462.301 621.496C462.301 619.768 462.823 618.371 463.869 617.304C464.914 616.237 466.301 615.704 468.029 615.704C469.479 615.704 470.727 616.024 471.773 616.664L471.069 618.328C470.066 617.709 469.031 617.4 467.965 617.4C466.877 617.4 466.002 617.784 465.341 618.552C464.679 619.299 464.349 620.28 464.349 621.496C464.349 622.733 464.679 623.725 465.341 624.472C466.002 625.219 466.877 625.592 467.965 625.592C469.031 625.592 470.066 625.283 471.069 624.664L471.773 626.328ZM483.123 626.904L481.235 627.288L480.915 625.88C479.827 626.819 478.6 627.288 477.235 627.288C476.147 627.288 475.24 627 474.515 626.424C473.789 625.827 473.416 625.027 473.395 624.024C473.395 621.315 475.816 619.928 480.659 619.864C480.445 618.264 479.571 617.464 478.035 617.464C476.883 617.464 475.613 617.731 474.227 618.264L474.003 616.44C475.453 616.013 476.829 615.8 478.131 615.8C481.16 615.8 482.675 617.357 482.675 620.472V624.088C482.675 624.899 482.824 625.837 483.123 626.904ZM480.659 623.544V621.624C477.181 621.688 475.443 622.424 475.443 623.832C475.443 624.963 476.072 625.528 477.331 625.528C478.035 625.528 478.739 625.357 479.443 625.016C480.253 624.611 480.659 624.12 480.659 623.544ZM496.249 627H494.233V620.824C494.233 618.605 493.219 617.496 491.193 617.496C490.446 617.496 489.71 617.837 488.985 618.52C488.281 619.181 487.929 619.843 487.929 620.504V627H485.913V619C485.913 617.677 485.827 616.707 485.657 616.088H487.545C487.694 616.451 487.769 616.888 487.769 617.4C488.793 616.333 490.03 615.8 491.481 615.8C492.931 615.8 494.083 616.248 494.937 617.144C495.811 618.04 496.249 619.267 496.249 620.824V627ZM516.999 627H514.983V620.888C514.983 619.928 514.716 619.139 514.183 618.52C513.671 617.88 512.967 617.56 512.071 617.56C511.175 617.56 510.385 617.88 509.703 618.52C509.02 619.16 508.679 619.864 508.679 620.632V627H506.663V610.872H508.679V617.304C509.66 616.323 510.887 615.832 512.359 615.832C513.809 615.832 514.94 616.291 515.751 617.208C516.583 618.104 516.999 619.32 516.999 620.856V627ZM529.826 626.424C528.268 627 526.786 627.288 525.378 627.288C523.65 627.288 522.22 626.776 521.09 625.752C519.98 624.707 519.426 623.363 519.426 621.72C519.426 619.907 519.98 618.435 521.09 617.304C522.178 616.237 523.564 615.704 525.25 615.704C528.535 615.704 530.21 617.763 530.274 621.88H521.41C521.495 623.032 521.9 623.928 522.626 624.568C523.372 625.187 524.332 625.496 525.506 625.496C526.7 625.496 528.066 625.219 529.602 624.664L529.826 626.424ZM528.29 620.184C528.183 619.352 527.842 618.68 527.266 618.168C526.69 617.635 525.954 617.368 525.058 617.368C524.204 617.368 523.436 617.635 522.754 618.168C522.092 618.68 521.687 619.352 521.538 620.184H528.29ZM534.71 627H532.694V619.8C532.694 618.093 532.566 616.813 532.31 615.96H534.102C534.336 616.344 534.454 616.856 534.454 617.496C534.646 617.091 535.04 616.707 535.638 616.344C536.256 615.981 536.864 615.8 537.462 615.8C537.888 615.8 538.23 615.832 538.486 615.896V617.624C538.315 617.581 538.07 617.56 537.75 617.56C535.723 617.56 534.71 618.776 534.71 621.208V627ZM550.201 626.424C548.643 627 547.161 627.288 545.753 627.288C544.025 627.288 542.595 626.776 541.465 625.752C540.355 624.707 539.801 623.363 539.801 621.72C539.801 619.907 540.355 618.435 541.465 617.304C542.553 616.237 543.939 615.704 545.625 615.704C548.91 615.704 550.585 617.763 550.649 621.88H541.785C541.87 623.032 542.275 623.928 543.001 624.568C543.747 625.187 544.707 625.496 545.881 625.496C547.075 625.496 548.441 625.219 549.977 624.664L550.201 626.424ZM548.665 620.184C548.558 619.352 548.217 618.68 547.641 618.168C547.065 617.635 546.329 617.368 545.433 617.368C544.579 617.368 543.811 617.635 543.129 618.168C542.467 618.68 542.062 619.352 541.913 620.184H548.665Z" fill="#D7D8DD"/>
<path d="M49.808 755.372C49.808 756.212 49.532 756.908 48.98 757.46C48.428 757.988 47.744 758.252 46.928 758.252C46.16 758.252 45.512 757.988 44.984 757.46C44.456 756.932 44.192 756.296 44.192 755.552C44.192 754.784 44.456 754.136 44.984 753.608C45.512 753.08 46.16 752.816 46.928 752.816C47.192 752.816 47.408 752.828 47.576 752.852V747.56C47.576 746.024 46.472 745.256 44.264 745.256C43.352 745.256 42.572 745.544 41.924 746.12C41.3 746.672 40.988 747.416 40.988 748.352H38.828C38.9 746.768 39.416 745.544 40.376 744.68C41.36 743.792 42.656 743.348 44.264 743.348C45.848 743.348 47.12 743.66 48.08 744.284C49.232 745.028 49.808 746.168 49.808 747.704V755.372ZM48.152 755.516C48.152 755.18 48.032 754.892 47.792 754.652C47.552 754.412 47.264 754.292 46.928 754.292C46.592 754.292 46.304 754.412 46.064 754.652C45.824 754.892 45.704 755.18 45.704 755.516C45.704 755.852 45.824 756.14 46.064 756.38C46.304 756.62 46.592 756.74 46.928 756.74C47.264 756.74 47.552 756.62 47.792 756.38C48.032 756.14 48.152 755.852 48.152 755.516ZM53.4406 734.852C52.8166 738.836 50.6566 740.828 46.9606 740.828C45.5206 740.828 44.4166 740.54 43.6486 739.964C42.8806 739.364 42.4966 738.608 42.4966 737.696C42.4966 737 42.7366 736.412 43.2166 735.932C43.6966 735.452 44.2846 735.212 44.9806 735.212C45.7246 735.212 46.3366 735.464 46.8166 735.968C47.2726 736.448 47.5006 737.024 47.5006 737.696C47.5006 738.344 47.3206 738.824 46.9606 739.136C49.4566 739.04 50.9086 737.612 51.3166 734.852H53.4406ZM46.0606 737.696C46.0606 737.384 45.9526 737.12 45.7366 736.904C45.5206 736.688 45.2566 736.58 44.9446 736.58C44.6326 736.58 44.3806 736.688 44.1886 736.904C43.9726 737.12 43.8646 737.384 43.8646 737.696C43.8646 738.008 43.9726 738.272 44.1886 738.488C44.3806 738.68 44.6326 738.776 44.9446 738.776C45.2566 738.776 45.5206 738.68 45.7366 738.488C45.9526 738.272 46.0606 738.008 46.0606 737.696ZM65.3926 751.196C65.3926 752.156 65.1406 752.816 64.6366 753.176C65.5726 753.704 66.0406 754.508 66.0406 755.588C66.0406 756.356 65.7766 757.004 65.2486 757.532C64.7206 758.036 64.0846 758.288 63.3406 758.288C62.6446 758.288 62.0446 758.072 61.5406 757.64C61.0366 757.184 60.7366 756.62 60.6406 755.948C59.8726 756.332 59.3206 756.62 58.9846 756.812C58.4086 757.172 57.9526 757.568 57.6166 758H55.3486V748.748C55.1086 748.796 54.9046 748.82 54.7366 748.82C53.9686 748.82 53.3206 748.556 52.7926 748.028C52.2646 747.476 52.0006 746.816 52.0006 746.048C52.0006 745.304 52.2646 744.668 52.7926 744.14C53.3206 743.612 53.9686 743.348 54.7366 743.348C55.5526 743.348 56.2246 743.624 56.7526 744.176C57.3046 744.728 57.5806 745.424 57.5806 746.264V755.408C57.9646 755.12 58.8286 754.7 60.1726 754.148C61.3726 753.644 62.2006 753.14 62.6566 752.636C62.9926 752.276 63.1606 751.7 63.1606 750.908V743.636H65.3926V751.196ZM55.9606 746.084C55.9606 745.748 55.8406 745.46 55.6006 745.22C55.3606 744.98 55.0726 744.86 54.7366 744.86C54.4006 744.86 54.1126 744.98 53.8726 745.22C53.6326 745.46 53.5126 745.748 53.5126 746.084C53.5126 746.42 53.6326 746.708 53.8726 746.948C54.1126 747.188 54.4006 747.308 54.7366 747.308C55.0726 747.308 55.3606 747.188 55.6006 746.948C55.8406 746.708 55.9606 746.42 55.9606 746.084ZM64.5286 755.588C64.5286 755.252 64.4086 754.964 64.1686 754.724C63.9286 754.484 63.6406 754.364 63.3046 754.364C62.9686 754.364 62.6806 754.484 62.4406 754.724C62.2006 754.964 62.0806 755.252 62.0806 755.588C62.0806 755.924 62.2006 756.212 62.4406 756.452C62.6806 756.692 62.9686 756.812 63.3046 756.812C63.6406 756.812 63.9286 756.692 64.1686 756.452C64.4086 756.212 64.5286 755.924 64.5286 755.588ZM81.1468 758H78.9148V746.372C78.9148 745.628 78.7348 745.256 78.3748 745.256C78.0628 745.256 77.8468 745.436 77.7268 745.796L73.4428 758H70.9228V748.748C70.6828 748.796 70.4788 748.82 70.3108 748.82C69.5428 748.82 68.8948 748.556 68.3668 748.028C67.8388 747.476 67.5748 746.816 67.5748 746.048C67.5748 745.304 67.8388 744.668 68.3668 744.14C68.8948 743.612 69.5428 743.348 70.3108 743.348C71.1268 743.348 71.7988 743.624 72.3268 744.176C72.8788 744.728 73.1548 745.424 73.1548 746.264V751.628C73.1548 752.444 73.0108 753.716 72.7228 755.444C72.9868 754.388 73.3228 753.212 73.7308 751.916L75.7468 745.508C76.2028 744.044 77.1028 743.324 78.4468 743.348C80.2468 743.372 81.1468 744.392 81.1468 746.408V758ZM71.5348 746.084C71.5348 745.748 71.4148 745.46 71.1748 745.22C70.9348 744.98 70.6468 744.86 70.3108 744.86C69.9748 744.86 69.6868 744.98 69.4468 745.22C69.2068 745.46 69.0868 745.748 69.0868 746.084C69.0868 746.42 69.2068 746.708 69.4468 746.948C69.6868 747.188 69.9748 747.308 70.3108 747.308C70.6468 747.308 70.9348 747.188 71.1748 746.948C71.4148 746.708 71.5348 746.42 71.5348 746.084ZM81.236 741.8C78.26 740.84 75.536 740.36 73.064 740.36C71.936 740.36 70.796 740.432 69.644 740.576C69.932 737.36 71.684 735.752 74.9 735.752C76.604 735.752 77.972 736.22 79.004 737.156V734.672H81.164V741.296C81.188 741.464 81.212 741.632 81.236 741.8ZM78.932 739.676C78.788 739.076 78.356 738.512 77.636 737.984C76.916 737.456 76.1 737.192 75.188 737.192C74.324 737.192 73.58 737.372 72.956 737.732C72.332 738.068 71.936 738.524 71.768 739.1C72.176 739.004 72.812 738.956 73.676 738.956C75.452 738.956 77.204 739.196 78.932 739.676ZM81.164 733.628H79.004V729.524H81.164V733.628ZM97.184 754.76C97.184 757.112 95.444 758.288 91.964 758.288C88.46 758.288 86.708 757.112 86.708 754.76V748.748C86.468 748.796 86.264 748.82 86.096 748.82C85.328 748.82 84.68 748.556 84.152 748.028C83.624 747.476 83.36 746.816 83.36 746.048C83.36 745.304 83.624 744.668 84.152 744.14C84.68 743.612 85.328 743.348 86.096 743.348C86.912 743.348 87.584 743.624 88.112 744.176C88.664 744.728 88.94 745.424 88.94 746.264V754.796C88.94 755.276 89.264 755.66 89.912 755.948C90.56 756.236 91.244 756.38 91.964 756.38C92.66 756.38 93.332 756.236 93.98 755.948C94.628 755.66 94.952 755.276 94.952 754.796V737.876H97.184V754.76ZM87.32 746.084C87.32 745.748 87.2 745.46 86.96 745.22C86.72 744.98 86.432 744.86 86.096 744.86C85.76 744.86 85.472 744.98 85.232 745.22C84.992 745.46 84.872 745.748 84.872 746.084C84.872 746.42 84.992 746.708 85.232 746.948C85.472 747.188 85.76 747.308 86.096 747.308C86.432 747.308 86.72 747.188 86.96 746.948C87.2 746.708 87.32 746.42 87.32 746.084ZM93.8472 741.8C90.8712 740.84 88.1472 740.36 85.6752 740.36C84.5472 740.36 83.4072 740.432 82.2552 740.576C82.5432 737.36 84.2952 735.752 87.5112 735.752C89.3592 735.752 90.8232 736.316 91.9032 737.444C92.9832 738.548 93.6312 740 93.8472 741.8ZM91.5432 739.676C91.3992 739.076 90.9672 738.512 90.2472 737.984C89.5272 737.456 88.7112 737.192 87.7992 737.192C86.9352 737.192 86.1912 737.372 85.5672 737.732C84.9432 738.068 84.5472 738.524 84.3792 739.1C84.7872 739.004 85.4232 738.956 86.2872 738.956C88.0632 738.956 89.8152 739.196 91.5432 739.676ZM111.775 758H109.543V748.352C109.543 747.44 109.195 746.696 108.499 746.12C107.827 745.544 107.023 745.256 106.087 745.256C105.079 745.256 104.203 745.604 103.459 746.3C102.715 746.972 102.343 747.788 102.343 748.748C102.343 749.348 102.535 750.2 102.919 751.304C103.327 752.408 103.531 753.236 103.531 753.788C103.531 753.956 103.507 754.184 103.459 754.472C104.155 753.344 104.935 752.396 105.799 751.628C105.127 751.58 104.599 751.316 104.215 750.836C103.855 750.428 103.675 749.924 103.675 749.324C103.675 748.7 103.903 748.16 104.359 747.704C104.839 747.224 105.403 746.984 106.051 746.984C106.699 746.984 107.251 747.224 107.707 747.704C108.163 748.16 108.391 748.7 108.391 749.324C108.391 750.404 107.863 751.604 106.807 752.924C105.343 754.724 104.515 755.804 104.323 756.164C103.963 756.788 103.783 757.4 103.783 758H101.515C101.539 757.112 101.551 756.296 101.551 755.552C101.551 754.256 101.407 753.26 101.119 752.564C100.903 751.94 100.687 751.304 100.471 750.656C100.255 749.984 100.147 749.396 100.147 748.892C100.147 747.26 100.711 745.928 101.839 744.896C102.991 743.864 104.383 743.348 106.015 743.348C107.671 743.348 109.027 743.78 110.083 744.644C111.211 745.58 111.775 746.864 111.775 748.496V758ZM107.131 749.324C107.131 749.012 107.023 748.76 106.807 748.568C106.615 748.352 106.363 748.244 106.051 748.244C105.739 748.244 105.475 748.352 105.259 748.568C105.067 748.76 104.971 749.012 104.971 749.324C104.971 749.636 105.067 749.9 105.259 750.116C105.475 750.308 105.739 750.404 106.051 750.404C106.363 750.404 106.615 750.308 106.807 750.116C107.023 749.9 107.131 749.636 107.131 749.324ZM123.377 755.588C123.377 756.356 123.101 757.004 122.549 757.532C122.021 758.036 121.373 758.288 120.605 758.288C119.837 758.288 119.177 758.024 118.625 757.496C118.097 756.968 117.833 756.32 117.833 755.552C117.833 754.784 118.097 754.136 118.625 753.608C119.177 753.08 119.837 752.816 120.605 752.816C120.893 752.816 121.073 752.828 121.145 752.852V749.756C121.145 749.372 120.341 749 118.733 748.64C117.149 748.256 115.709 747.956 114.413 747.74C114.461 746.42 114.809 745.364 115.457 744.572C116.105 743.756 117.041 743.348 118.265 743.348C118.769 743.348 119.453 743.468 120.317 743.708C121.205 743.924 121.841 744.032 122.225 744.032C122.633 744.032 122.861 743.768 122.909 743.24L124.673 743.708C124.241 745.172 123.449 745.904 122.297 745.904C121.865 745.904 121.241 745.796 120.425 745.58C119.633 745.364 119.033 745.256 118.625 745.256C117.569 745.256 116.969 745.664 116.825 746.48C118.673 746.864 120.221 747.272 121.469 747.704C122.741 748.136 123.377 748.88 123.377 749.936V755.588ZM121.829 755.552C121.829 755.216 121.709 754.928 121.469 754.688C121.229 754.448 120.941 754.328 120.605 754.328C120.269 754.328 119.981 754.448 119.741 754.688C119.501 754.928 119.381 755.216 119.381 755.552C119.381 755.888 119.501 756.176 119.741 756.416C119.981 756.656 120.269 756.776 120.605 756.776C120.941 756.776 121.229 756.656 121.469 756.416C121.709 756.176 121.829 755.888 121.829 755.552ZM127.269 734.852C126.645 738.836 124.485 740.828 120.789 740.828C119.349 740.828 118.245 740.54 117.477 739.964C116.709 739.364 116.325 738.608 116.325 737.696C116.325 737 116.565 736.412 117.045 735.932C117.525 735.452 118.113 735.212 118.809 735.212C119.553 735.212 120.165 735.464 120.645 735.968C121.101 736.448 121.329 737.024 121.329 737.696C121.329 738.344 121.149 738.824 120.789 739.136C123.285 739.04 124.737 737.612 125.145 734.852H127.269ZM119.889 737.696C119.889 737.384 119.781 737.12 119.565 736.904C119.349 736.688 119.085 736.58 118.773 736.58C118.461 736.58 118.209 736.688 118.017 736.904C117.801 737.12 117.693 737.384 117.693 737.696C117.693 738.008 117.801 738.272 118.017 738.488C118.209 738.68 118.461 738.776 118.773 738.776C119.085 738.776 119.349 738.68 119.565 738.488C119.781 738.272 119.889 738.008 119.889 737.696ZM139.653 754.76C139.653 757.112 137.913 758.288 134.433 758.288C130.929 758.288 129.177 757.112 129.177 754.76V748.748C128.937 748.796 128.733 748.82 128.565 748.82C127.797 748.82 127.149 748.556 126.621 748.028C126.093 747.476 125.829 746.816 125.829 746.048C125.829 745.304 126.093 744.668 126.621 744.14C127.149 743.612 127.797 743.348 128.565 743.348C129.381 743.348 130.053 743.624 130.581 744.176C131.133 744.728 131.409 745.424 131.409 746.264V754.796C131.409 755.276 131.733 755.66 132.381 755.948C133.029 756.236 133.713 756.38 134.433 756.38C135.129 756.38 135.801 756.236 136.449 755.948C137.097 755.66 137.421 755.276 137.421 754.796V743.636H139.653V754.76ZM129.789 746.084C129.789 745.748 129.669 745.46 129.429 745.22C129.189 744.98 128.901 744.86 128.565 744.86C128.229 744.86 127.941 744.98 127.701 745.22C127.461 745.46 127.341 745.748 127.341 746.084C127.341 746.42 127.461 746.708 127.701 746.948C127.941 747.188 128.229 747.308 128.565 747.308C128.901 747.308 129.189 747.188 129.429 746.948C129.669 746.708 129.789 746.42 129.789 746.084ZM154.028 758H151.796V751.772C151.796 751.052 151.388 750.5 150.572 750.116C149.948 749.828 149.252 749.684 148.484 749.684C147.74 749.684 147.104 749.864 146.576 750.224C145.928 750.656 145.604 751.232 145.604 751.952V752.852C145.94 752.804 146.156 752.78 146.252 752.78C147.02 752.78 147.68 753.056 148.232 753.608C148.784 754.136 149.06 754.772 149.06 755.516C149.06 756.284 148.772 756.932 148.196 757.46C147.62 757.988 146.96 758.252 146.216 758.252C145.424 758.252 144.752 758 144.2 757.496C143.648 756.968 143.372 756.308 143.372 755.516V752.204C143.372 750.788 143.9 749.684 144.956 748.892C145.892 748.196 147.056 747.848 148.448 747.848C149.936 747.848 151.052 748.256 151.796 749.072V747.452C151.796 746.708 151.364 746.132 150.5 745.724C149.828 745.412 149.072 745.256 148.232 745.256C147.296 745.256 146.492 745.472 145.82 745.904C145.076 746.384 144.632 747.032 144.488 747.848H142.328C142.472 746.384 143.108 745.256 144.236 744.464C145.292 743.72 146.648 743.348 148.304 743.348C149.384 743.348 150.356 743.54 151.22 743.924C151.724 743.468 151.976 742.892 151.976 742.196H154.496C154.208 743.42 153.692 744.368 152.948 745.04C153.668 745.808 154.028 746.696 154.028 747.704V758ZM147.476 755.516C147.476 755.18 147.356 754.892 147.116 754.652C146.876 754.412 146.588 754.292 146.252 754.292C145.916 754.292 145.628 754.412 145.388 754.652C145.148 754.892 145.028 755.18 145.028 755.516C145.028 755.852 145.148 756.14 145.388 756.38C145.628 756.62 145.916 756.74 146.252 756.74C146.588 756.74 146.876 756.62 147.116 756.38C147.356 756.14 147.476 755.852 147.476 755.516ZM169.055 758H166.823C165.431 756.752 164.027 755.876 162.611 755.372V755.552C162.611 756.32 162.311 756.968 161.711 757.496C161.135 758.024 160.475 758.288 159.731 758.288C158.939 758.288 158.255 758 157.679 757.424C157.103 756.848 156.815 756.164 156.815 755.372C156.815 754.58 157.103 753.908 157.679 753.356C158.255 752.78 158.939 752.492 159.731 752.492H159.983V748.748C159.743 748.796 159.539 748.82 159.371 748.82C158.603 748.82 157.955 748.556 157.427 748.028C156.899 747.476 156.635 746.816 156.635 746.048C156.635 745.304 156.899 744.668 157.427 744.14C157.955 743.612 158.603 743.348 159.371 743.348C160.187 743.348 160.859 743.624 161.387 744.176C161.939 744.728 162.215 745.424 162.215 746.264V753.104C164.111 753.752 165.647 754.604 166.823 755.66V743.636H169.055V758ZM160.595 746.084C160.595 745.748 160.475 745.46 160.235 745.22C159.995 744.98 159.707 744.86 159.371 744.86C159.035 744.86 158.747 744.98 158.507 745.22C158.267 745.46 158.147 745.748 158.147 746.084C158.147 746.42 158.267 746.708 158.507 746.948C158.747 747.188 159.035 747.308 159.371 747.308C159.707 747.308 159.995 747.188 160.235 746.948C160.475 746.708 160.595 746.42 160.595 746.084ZM160.955 755.372C160.955 755.036 160.835 754.748 160.595 754.508C160.355 754.268 160.067 754.148 159.731 754.148C159.395 754.148 159.107 754.268 158.867 754.508C158.627 754.748 158.507 755.036 158.507 755.372C158.507 755.708 158.627 755.996 158.867 756.236C159.107 756.476 159.395 756.596 159.731 756.596C160.067 756.596 160.355 756.476 160.595 756.236C160.835 755.996 160.955 755.708 160.955 755.372ZM172.691 734.852C172.067 738.836 169.907 740.828 166.211 740.828C164.771 740.828 163.667 740.54 162.899 739.964C162.131 739.364 161.747 738.608 161.747 737.696C161.747 737 161.987 736.412 162.467 735.932C162.947 735.452 163.535 735.212 164.231 735.212C164.975 735.212 165.587 735.464 166.067 735.968C166.523 736.448 166.751 737.024 166.751 737.696C166.751 738.344 166.571 738.824 166.211 739.136C168.707 739.04 170.159 737.612 170.567 734.852H172.691ZM165.311 737.696C165.311 737.384 165.203 737.12 164.987 736.904C164.771 736.688 164.507 736.58 164.195 736.58C163.883 736.58 163.631 736.688 163.439 736.904C163.223 737.12 163.115 737.384 163.115 737.696C163.115 738.008 163.223 738.272 163.439 738.488C163.631 738.68 163.883 738.776 164.195 738.776C164.507 738.776 164.771 738.68 164.987 738.488C165.203 738.272 165.311 738.008 165.311 737.696ZM183.563 758H181.331V748.172C181.331 747.308 180.959 746.588 180.215 746.012C179.519 745.508 178.715 745.256 177.803 745.256C176.723 745.256 175.859 745.628 175.211 746.372C174.563 747.092 174.239 747.932 174.239 748.892C174.239 749.156 174.287 749.6 174.383 750.224C174.503 750.824 174.563 751.352 174.563 751.808V752.816C174.563 752.792 174.599 752.54 174.671 752.06C174.767 751.556 174.827 751.172 174.851 750.908C175.091 749.9 175.463 749.06 175.967 748.388C176.591 747.524 177.311 747.092 178.127 747.092C178.775 747.092 179.339 747.32 179.819 747.776C180.299 748.232 180.539 748.784 180.539 749.432C180.539 750.056 180.299 750.608 179.819 751.088C179.339 751.544 178.775 751.772 178.127 751.772C177.527 751.772 176.987 751.556 176.507 751.124C175.787 753.308 175.427 755.6 175.427 758H173.195V755.696C173.195 754.568 172.991 753.344 172.583 752.024C172.199 750.68 172.007 749.624 172.007 748.856C172.007 747.2 172.607 745.856 173.807 744.824C174.935 743.84 176.327 743.348 177.983 743.348C179.495 743.348 180.767 743.744 181.799 744.536C182.975 745.448 183.563 746.684 183.563 748.244V758ZM179.207 749.432C179.207 749.12 179.099 748.856 178.883 748.64C178.667 748.424 178.403 748.316 178.091 748.316C177.779 748.316 177.515 748.424 177.299 748.64C177.107 748.856 177.011 749.12 177.011 749.432C177.011 749.744 177.107 750.008 177.299 750.224C177.515 750.416 177.779 750.512 178.091 750.512C178.403 750.512 178.667 750.416 178.883 750.224C179.099 750.008 179.207 749.744 179.207 749.432ZM195.166 755.588C195.166 756.356 194.89 757.004 194.338 757.532C193.81 758.036 193.162 758.288 192.394 758.288C191.626 758.288 190.966 758.024 190.414 757.496C189.886 756.968 189.622 756.32 189.622 755.552C189.622 754.784 189.886 754.136 190.414 753.608C190.966 753.08 191.626 752.816 192.394 752.816C192.682 752.816 192.862 752.828 192.934 752.852V749.756C192.934 749.372 192.13 749 190.522 748.64C188.938 748.256 187.498 747.956 186.202 747.74C186.25 746.42 186.598 745.364 187.246 744.572C187.894 743.756 188.83 743.348 190.054 743.348C190.558 743.348 191.242 743.468 192.106 743.708C192.994 743.924 193.63 744.032 194.014 744.032C194.422 744.032 194.65 743.768 194.698 743.24L196.462 743.708C196.03 745.172 195.238 745.904 194.086 745.904C193.654 745.904 193.03 745.796 192.214 745.58C191.422 745.364 190.822 745.256 190.414 745.256C189.358 745.256 188.758 745.664 188.614 746.48C190.462 746.864 192.01 747.272 193.258 747.704C194.53 748.136 195.166 748.88 195.166 749.936V755.588ZM193.618 755.552C193.618 755.216 193.498 754.928 193.258 754.688C193.018 754.448 192.73 754.328 192.394 754.328C192.058 754.328 191.77 754.448 191.53 754.688C191.29 754.928 191.17 755.216 191.17 755.552C191.17 755.888 191.29 756.176 191.53 756.416C191.77 756.656 192.058 756.776 192.394 756.776C192.73 756.776 193.018 756.656 193.258 756.416C193.498 756.176 193.618 755.888 193.618 755.552Z" fill="#EDEDED"/>
</g>
<defs>
<clipPath id="clip0_30_11">
<rect width="596" height="810" rx="20" fill="white"/>
</clipPath>
</defs>
</svg>
